<?xml version="1.0" encoding="UTF-8" standalone="no"?>
<svg
   xmlns:dc="http://purl.org/dc/elements/1.1/"
   xmlns:cc="http://creativecommons.org/ns#"
   xmlns:rdf="http://www.w3.org/1999/02/22-rdf-syntax-ns#"
   xmlns:svg="http://www.w3.org/2000/svg"
   xmlns="http://www.w3.org/2000/svg"
   xmlns:sodipodi="http://sodipodi.sourceforge.net/DTD/sodipodi-0.dtd"
   xmlns:inkscape="http://www.inkscape.org/namespaces/inkscape"
   width="150mm"
   height="150mm"
   version="1.1"
   id="svg32"
   sodipodi:docname="case.dxf"
   inkscape:version="0.92.4 (5da689c313, 2019-01-14)">
  <metadata
     id="metadata36">
    <rdf:RDF>
      <cc:Work
         rdf:about="">
        <dc:format>image/svg+xml</dc:format>
        <dc:type
           rdf:resource="http://purl.org/dc/dcmitype/StillImage" />
        <dc:title></dc:title>
      </cc:Work>
    </rdf:RDF>
  </metadata>
  <sodipodi:namedview
     pagecolor="#ffffff"
     bordercolor="#666666"
     borderopacity="1"
     objecttolerance="10"
     gridtolerance="10"
     guidetolerance="10"
     inkscape:pageopacity="0"
     inkscape:pageshadow="2"
     inkscape:window-width="1920"
     inkscape:window-height="1017"
     id="namedview34"
     showgrid="false"
     units="mm"
     inkscape:zoom="0.84096523"
     inkscape:cx="-342.7201"
     inkscape:cy="246.47461"
     inkscape:window-x="-8"
     inkscape:window-y="-7"
     inkscape:window-maximized="1"
     inkscape:current-layer="g30" />
  <desc
     id="desc2">C:\Users\funvill\Documents\git\XH-M190-case\case.dxf - scale = 1.000000, origin = (0.000000, 0.000000), method = manual</desc>
  <defs
     id="defs16">
    <marker
       id="DistanceX"
       orient="auto"
       refX="0"
       refY="0"
       style="overflow:visible">
      <path
         d="M 3,-3 -3,3 M 0,-5 V 5"
         style="stroke:#000000;stroke-width:0.5"
         id="path4"
         inkscape:connector-curvature="0" />
    </marker>
    <pattern
       height="8"
       id="Hatch"
       patternUnits="userSpaceOnUse"
       width="8"
       x="0"
       y="0">
      <path
         d="M8 4 l-4,4"
         linecap="square"
         stroke="#000000"
         stroke-width="0.25"
         id="path7" />
      <path
         d="M6 2 l-4,4"
         linecap="square"
         stroke="#000000"
         stroke-width="0.25"
         id="path9" />
      <path
         d="M4 0 l-4,4"
         linecap="square"
         stroke="#000000"
         stroke-width="0.25"
         id="path11" />
    </pattern>
    <symbol
       id="*MODEL_SPACE" />
    <symbol
       id="*PAPER_SPACE" />
  </defs>
  <g
     inkscape:groupmode="layer"
     inkscape:label="0"
     id="g30"
     transform="translate(0,-555.59058)">
    <path
       d="M 480.51248,1108.2504 H 87.44161 A 11.338583,11.338583 0 0 1 76.103027,1096.9118 V 839.90391 A 11.338583,11.338583 0 0 1 87.44161,828.56533 h 393.07087 a 11.338583,11.338583 0 0 1 11.33858,11.33858 v 257.00789 a 11.338583,11.338583 0 0 1 -11.33858,11.3386 z"
       style="fill:none;stroke:#000000"
       id="path18"
       inkscape:connector-curvature="0" />
    <path
       d="m 115.22114,859.74643 a 6.992126,6.992126 0 1 0 -13.98425,0 6.992126,6.992126 0 1 0 13.98425,0 z"
       style="fill:none;stroke:#000000"
       id="path20"
       inkscape:connector-curvature="0" />
    <path
       d="m 115.22114,1077.0693 a 6.992126,6.992126 0 1 0 -13.98425,0 6.992126,6.992126 0 1 0 13.98425,0 z"
       style="fill:none;stroke:#000000"
       id="path22"
       inkscape:connector-curvature="0" />
    <path
       d="m 461.04791,859.74643 a 6.992126,6.992126 0 1 0 -13.98425,0 6.992126,6.992126 0 1 0 13.98425,0 z"
       style="fill:none;stroke:#000000"
       id="path24"
       inkscape:connector-curvature="0" />
    <path
       d="m 461.04791,1077.0693 a 6.992126,6.992126 0 1 0 -13.98425,0 6.992126,6.992126 0 1 0 13.98425,0 z"
       style="fill:none;stroke:#000000"
       id="path26"
       inkscape:connector-curvature="0" />
    <path
       d="m 210.69196,768.79078 h -37.79528 v 37.79527 h 37.79528 z"
       style="fill:none;stroke:#000000;stroke-width:1"
       id="path28"
       inkscape:connector-curvature="0" />
    <text
       xml:space="preserve"
       style="font-style:normal;font-weight:normal;font-size:10.95667744px;line-height:1.25;font-family:sans-serif;text-align:center;letter-spacing:0px;word-spacing:0px;text-anchor:middle;fill:#000000;fill-opacity:1;stroke:none;stroke-width:0.27391696"
       x="191.367"
       y="785.02325"
       id="text40"><tspan
         sodipodi:role="line"
         id="tspan38"
         x="193.29298"
         y="785.02325"
         style="text-align:center;text-anchor:middle;stroke-width:0.27391696">10x10 </tspan><tspan
         sodipodi:role="line"
         x="191.367"
         y="798.71912"
         style="text-align:center;text-anchor:middle;stroke-width:0.27391696"
         id="tspan42">mm</tspan></text>
    <text
       xml:space="preserve"
       style="font-style:normal;font-weight:normal;font-size:40px;line-height:1.25;font-family:sans-serif;letter-spacing:0px;word-spacing:0px;fill:#000000;fill-opacity:1;stroke:none"
       x="146.26051"
       y="673.03619"
       id="text46"><tspan
         sodipodi:role="line"
         id="tspan44"
         x="146.26051"
         y="673.03619">XH-M190 Case</tspan></text>
  </g>
</svg>
